ffmpeg started on 2025-06-23 at 21:09:23
Report written to "D:\Convert\FFMetrics\reports\ssim_report-6.txt"
Log level: 32
Command line:
ffmpeg -hide_banner -nostdin -i "G:\\\xc0\xed\xe8\xec\xe5\\[\xd2\xee\xef-4]\\\xcc\xee\xe6\xe5\xf2, \xff \xe2\xf1\xf2\xf0\xe5\xf7\xf3 \xf2\xe5\xe1\xff \xe2 \xef\xee\xe4\xe7\xe5\xec\xe5\xeb\xfc\xe5\\\xd2\xc2-2\\Danmachi_Sword_Oratoria_[09]_[AniLibria_TV]_[HDTV-Rip]_HEVC.mkv" -i "G:\\\xc0\xed\xe8\xec\xe5\\[\xd2\xee\xef-4]\\\xcc\xee\xe6\xe5\xf2, \xff \xe2\xf1\xf2\xf0\xe5\xf7\xf3 \xf2\xe5\xe1\xff \xe2 \xef\xee\xe4\xe7\xe5\xec\xe5\xeb\xfc\xe5\\\xd2\xc2-2\\Danmachi_Sword_Oratoria_[09]_[AniLibria_TV]_[HDTV-Rip].mkv" -lavfi "[0:v]settb=AVTB,setpts=PTS-STARTPTS,format=pix_fmts=yuv420p10,fps=24000/1001,scale=1280:720:flags=bicubic[main];[1:v]settb=AVTB,setpts=PTS-STARTPTS,format=pix_fmts=yuv420p,fps=24000/1001,scale=1280:720:flags=bicubic[ref];[main][ref]ssim=eof_action=endall:stats_file='D\\:/Convert/FFMetrics/logs/ssim_logfile-6.txt'" -f null -
Input #0, matroska,webm, from 'G:\Аниме\[Топ-4]\Может, я встречу тебя в подземелье\ТВ-2\Danmachi_Sword_Oratoria_[09]_[AniLibria_TV]_[HDTV-Rip]_HEVC.mkv':
  Metadata:
    ENCODER         : Lavf61.7.100
  Duration: 00:23:59.81, start: -0.021000, bitrate: 628 kb/s
  Stream #0:0(jpn): Video: hevc (Main 10), yuv420p10le(tv, bt709, progressive), 1280x720 [SAR 1:1 DAR 16:9], 23.98 fps, 23.98 tbr, 1k tbn (default) (forced)
      Metadata:
        title           : [Leopard-Raws]
        ENCODER         : Lavc61.19.100 libx265
        BPS             : 431116
        DURATION        : 00:23:59.771708333
        NUMBER_OF_FRAMES: 34520
        NUMBER_OF_BYTES : 77588579
        _STATISTICS_WRITING_APP: mkvpropedit v66.0.0 ('Josie') 64-bit
        _STATISTICS_WRITING_DATE_UTC: 2025-06-23 11:11:25
        _STATISTICS_TAGS: BPS DURATION NUMBER_OF_FRAMES NUMBER_OF_BYTES
  Stream #0:1(rus): Audio: aac (LC), 48000 Hz, stereo, fltp (default) (forced)
      Metadata:
        title           : LeeAnnushka & Sharon
        ENCODER         : Lavc61.19.100 aac
        BPS             : 193544
        DURATION        : 00:23:59.786000000
        NUMBER_OF_FRAMES: 67491
        NUMBER_OF_BYTES : 34832777
        _STATISTICS_WRITING_APP: mkvpropedit v66.0.0 ('Josie') 64-bit
        _STATISTICS_WRITING_DATE_UTC: 2025-06-23 11:11:25
        _STATISTICS_TAGS: BPS DURATION NUMBER_OF_FRAMES NUMBER_OF_BYTES
  Stream #0:2(rus): Subtitle: ass (ssa) (default) (forced)
      Metadata:
        title           : Надписи
        BPS             : 66
        DURATION        : 00:22:57.990000000
        NUMBER_OF_FRAMES: 37
        NUMBER_OF_BYTES : 11446
        _STATISTICS_WRITING_APP: mkvpropedit v66.0.0 ('Josie') 64-bit
        _STATISTICS_WRITING_DATE_UTC: 2025-06-23 11:11:25
        _STATISTICS_TAGS: BPS DURATION NUMBER_OF_FRAMES NUMBER_OF_BYTES
  Stream #0:3(rus): Subtitle: ass (ssa)
      Metadata:
        title           : Полные
        BPS             : 148
        DURATION        : 00:23:46.460000000
        NUMBER_OF_FRAMES: 311
        NUMBER_OF_BYTES : 26530
        _STATISTICS_WRITING_APP: mkvpropedit v66.0.0 ('Josie') 64-bit
        _STATISTICS_WRITING_DATE_UTC: 2025-06-23 11:11:25
        _STATISTICS_TAGS: BPS DURATION NUMBER_OF_FRAMES NUMBER_OF_BYTES
Input #1, matroska,webm, from 'G:\Аниме\[Топ-4]\Может, я встречу тебя в подземелье\ТВ-2\Danmachi_Sword_Oratoria_[09]_[AniLibria_TV]_[HDTV-Rip].mkv':
  Metadata:
    encoder         : libebml v1.4.2 + libmatroska v1.6.4
    creation_time   : 2025-01-14T16:52:28.000000Z
  Duration: 00:23:59.79, start: 0.000000, bitrate: 2297 kb/s
  Stream #1:0(jpn): Video: h264 (High), yuv420p(tv, bt709, progressive), 1280x720 [SAR 1:1 DAR 16:9], 23.98 fps, 23.98 tbr, 1k tbn (default) (forced)
      Metadata:
        title           : [Leopard-Raws]
        BPS             : 2100846
        DURATION        : 00:23:59.772000000
        NUMBER_OF_FRAMES: 34520
        NUMBER_OF_BYTES : 378092453
        _STATISTICS_WRITING_APP: mkvmerge v66.0.0 ('Josie') 64-bit
        _STATISTICS_WRITING_DATE_UTC: 2025-01-14 16:52:28
        _STATISTICS_TAGS: BPS DURATION NUMBER_OF_FRAMES NUMBER_OF_BYTES
  Stream #1:1(rus): Audio: aac (LC), 48000 Hz, stereo, fltp (default) (forced)
      Metadata:
        title           : LeeAnnushka & Sharon
        BPS             : 192093
        DURATION        : 00:23:59.786000000
        NUMBER_OF_FRAMES: 67490
        NUMBER_OF_BYTES : 34571656
        _STATISTICS_WRITING_APP: mkvmerge v66.0.0 ('Josie') 64-bit
        _STATISTICS_WRITING_DATE_UTC: 2025-01-14 16:52:28
        _STATISTICS_TAGS: BPS DURATION NUMBER_OF_FRAMES NUMBER_OF_BYTES
  Stream #1:2(rus): Subtitle: ass (ssa) (default) (forced)
      Metadata:
        title           : Надписи
        BPS             : 66
        DURATION        : 00:22:57.990000000
        NUMBER_OF_FRAMES: 37
        NUMBER_OF_BYTES : 11446
        _STATISTICS_WRITING_APP: mkvmerge v66.0.0 ('Josie') 64-bit
        _STATISTICS_WRITING_DATE_UTC: 2025-01-14 16:52:28
        _STATISTICS_TAGS: BPS DURATION NUMBER_OF_FRAMES NUMBER_OF_BYTES
  Stream #1:3(rus): Subtitle: ass (ssa)
      Metadata:
        title           : Полные
        BPS             : 148
        DURATION        : 00:23:46.460000000
        NUMBER_OF_FRAMES: 311
        NUMBER_OF_BYTES : 26530
        _STATISTICS_WRITING_APP: mkvmerge v66.0.0 ('Josie') 64-bit
        _STATISTICS_WRITING_DATE_UTC: 2025-01-14 16:52:28
        _STATISTICS_TAGS: BPS DURATION NUMBER_OF_FRAMES NUMBER_OF_BYTES
  Stream #1:4: Attachment: ttf
      Metadata:
        filename        : 10119.ttf
        mimetype        : application/x-truetype-font
  Stream #1:5: Attachment: ttf
      Metadata:
        filename        : 10323.ttf
        mimetype        : application/x-truetype-font
  Stream #1:6: Attachment: ttf
      Metadata:
        filename        : 9808.ttf
        mimetype        : application/x-truetype-font
Stream mapping:
  Stream #0:0 (hevc) -> settb:default
  Stream #1:0 (h264) -> settb:default
  ssim:default -> Stream #0:0 (wrapped_avframe)
  Stream #0:1 -> #0:1 (aac (native) -> pcm_s16le (native))
Output #0, null, to 'pipe:':
  Metadata:
    encoder         : Lavf61.7.100
  Stream #0:0: Video: wrapped_avframe, yuv420p10le(tv, bt709, progressive), 1280x720 [SAR 1:1 DAR 16:9], q=2-31, 200 kb/s, 23.98 fps, 23.98 tbn
      Metadata:
        encoder         : Lavc61.19.100 wrapped_avframe
  Stream #0:1(rus): Audio: pcm_s16le, 48000 Hz, stereo, s16, 1536 kb/s (default) (forced)
      Metadata:
        title           : LeeAnnushka & Sharon
        _STATISTICS_TAGS: BPS DURATION NUMBER_OF_FRAMES NUMBER_OF_BYTES
        BPS             : 193544
        DURATION        : 00:23:59.786000000
        NUMBER_OF_FRAMES: 67491
        NUMBER_OF_BYTES : 34832777
        _STATISTICS_WRITING_APP: mkvpropedit v66.0.0 ('Josie') 64-bit
        _STATISTICS_WRITING_DATE_UTC: 2025-06-23 11:11:25
        encoder         : Lavc61.19.100 pcm_s16le
frame=  474 fps=0.0 q=-0.0 size=N/A time=00:00:19.76 bitrate=N/A speed=38.3x    frame= 1017 fps=994 q=-0.0 size=N/A time=00:00:42.41 bitrate=N/A speed=41.5x    frame= 1405 fps=908 q=-0.0 size=N/A time=00:00:58.60 bitrate=N/A speed=37.9x    frame= 1793 fps=872 q=-0.0 size=N/A time=00:01:14.78 bitrate=N/A speed=36.4x    frame= 2205 fps=854 q=-0.0 size=N/A time=00:01:31.96 bitrate=N/A speed=35.6x    frame= 2618 fps=846 q=-0.0 size=N/A time=00:01:49.19 bitrate=N/A speed=35.3x    frame= 2937 fps=815 q=-0.0 size=N/A time=00:02:02.49 bitrate=N/A speed=  34x    frame= 3387 fps=820 q=-0.0 size=N/A time=00:02:21.26 bitrate=N/A speed=34.2x    frame= 3893 fps=836 q=-0.0 size=N/A time=00:02:42.37 bitrate=N/A speed=34.9x    frame= 4313 fps=834 q=-0.0 size=N/A time=00:02:59.88 bitrate=N/A speed=34.8x    frame= 4951 fps=870 q=-0.0 size=N/A time=00:03:26.49 bitrate=N/A speed=36.3x    frame= 5581 fps=900 q=-0.0 size=N/A time=00:03:52.77 bitrate=N/A speed=37.5x    frame= 6184 fps=922 q=-0.0 size=N/A time=00:04:17.92 bitrate=N/A speed=38.4x    frame= 6772 fps=936 q=-0.0 size=N/A time=00:04:42.44 bitrate=N/A speed=  39x    frame= 7402 fps=955 q=-0.0 size=N/A time=00:05:08.72 bitrate=N/A speed=39.8x    frame= 8056 fps=974 q=-0.0 size=N/A time=00:05:36.00 bitrate=N/A speed=40.6x    frame= 8694 fps=990 q=-0.0 size=N/A time=00:06:02.61 bitrate=N/A speed=41.3x    frame= 9365 fps=1007 q=-0.0 size=N/A time=00:06:30.59 bitrate=N/A speed=  42x    frame= 9998 fps=1019 q=-0.0 size=N/A time=00:06:56.99 bitrate=N/A speed=42.5x    frame=10636 fps=1030 q=-0.0 size=N/A time=00:07:23.60 bitrate=N/A speed=  43x    frame=11234 fps=1036 q=-0.0 size=N/A time=00:07:48.55 bitrate=N/A speed=43.2x    frame=11840 fps=1043 q=-0.0 size=N/A time=00:08:13.82 bitrate=N/A speed=43.5x    frame=12376 fps=1042 q=-0.0 size=N/A time=00:08:36.18 bitrate=N/A speed=43.5x    frame=12962 fps=1046 q=-0.0 size=N/A time=00:09:00.62 bitrate=N/A speed=43.6x    frame=13472 fps=1044 q=-0.0 size=N/A time=00:09:21.89 bitrate=N/A speed=43.6x    frame=13874 fps=1033 q=-0.0 size=N/A time=00:09:38.66 bitrate=N/A speed=43.1x    frame=14447 fps=1036 q=-0.0 size=N/A time=00:10:02.56 bitrate=N/A speed=43.2x    frame=15048 fps=1042 q=-0.0 size=N/A time=00:10:27.62 bitrate=N/A speed=43.4x    frame=15591 fps=1041 q=-0.0 size=N/A time=00:10:50.27 bitrate=N/A speed=43.4x    frame=16157 fps=1043 q=-0.0 size=N/A time=00:11:13.88 bitrate=N/A speed=43.5x    frame=16715 fps=1045 q=-0.0 size=N/A time=00:11:37.15 bitrate=N/A speed=43.6x    frame=17350 fps=1050 q=-0.0 size=N/A time=00:12:03.63 bitrate=N/A speed=43.8x    frame=17924 fps=1052 q=-0.0 size=N/A time=00:12:27.58 bitrate=N/A speed=43.9x    frame=18509 fps=1055 q=-0.0 size=N/A time=00:12:51.97 bitrate=N/A speed=  44x    frame=18865 fps=1044 q=-0.0 size=N/A time=00:13:06.82 bitrate=N/A speed=43.6x    frame=19447 fps=1047 q=-0.0 size=N/A time=00:13:31.10 bitrate=N/A speed=43.7x    frame=20111 fps=1053 q=-0.0 size=N/A time=00:13:58.79 bitrate=N/A speed=43.9x    frame=20732 fps=1058 q=-0.0 size=N/A time=00:14:24.69 bitrate=N/A speed=44.1x    frame=21371 fps=1062 q=-0.0 size=N/A time=00:14:51.34 bitrate=N/A speed=44.3x    frame=21844 fps=1059 q=-0.0 size=N/A time=00:15:11.07 bitrate=N/A speed=44.2x    frame=22442 fps=1061 q=-0.0 size=N/A time=00:15:36.01 bitrate=N/A speed=44.3x    frame=23089 fps=1065 q=-0.0 size=N/A time=00:16:03.00 bitrate=N/A speed=44.4x    frame=23724 fps=1068 q=-0.0 size=N/A time=00:16:29.48 bitrate=N/A speed=44.6x    frame=24319 fps=1071 q=-0.0 size=N/A time=00:16:54.30 bitrate=N/A speed=44.7x    frame=24957 fps=1074 q=-0.0 size=N/A time=00:17:20.91 bitrate=N/A speed=44.8x    frame=25622 fps=1079 q=-0.0 size=N/A time=00:17:48.65 bitrate=N/A speed=  45x    frame=26215 fps=1081 q=-0.0 size=N/A time=00:18:13.38 bitrate=N/A speed=45.1x    frame=26847 fps=1083 q=-0.0 size=N/A time=00:18:39.74 bitrate=N/A speed=45.2x    frame=27338 fps=1081 q=-0.0 size=N/A time=00:19:00.22 bitrate=N/A speed=45.1x    frame=27772 fps=1076 q=-0.0 size=N/A time=00:19:18.32 bitrate=N/A speed=44.9x    frame=28387 fps=1078 q=-0.0 size=N/A time=00:19:43.97 bitrate=N/A speed=  45x    frame=28968 fps=1079 q=-0.0 size=N/A time=00:20:08.20 bitrate=N/A speed=  45x    frame=29597 fps=1082 q=-0.0 size=N/A time=00:20:34.44 bitrate=N/A speed=45.1x    frame=30218 fps=1084 q=-0.0 size=N/A time=00:21:00.34 bitrate=N/A speed=45.2x    frame=30836 fps=1086 q=-0.0 size=N/A time=00:21:26.11 bitrate=N/A speed=45.3x    frame=31444 fps=1088 q=-0.0 size=N/A time=00:21:51.47 bitrate=N/A speed=45.4x    frame=32006 fps=1088 q=-0.0 size=N/A time=00:22:14.91 bitrate=N/A speed=45.4x    frame=32591 fps=1088 q=-0.0 size=N/A time=00:22:39.31 bitrate=N/A speed=45.4x    frame=33102 fps=1087 q=-0.0 size=N/A time=00:23:00.62 bitrate=N/A speed=45.3x    frame=33577 fps=1084 q=-0.0 size=N/A time=00:23:20.44 bitrate=N/A speed=45.2x    frame=34094 fps=1083 q=-0.0 size=N/A time=00:23:42.00 bitrate=N/A speed=45.2x    [Parsed_ssim_10 @ 0000020dcde4e1c0] SSIM Y:0.989766 (19.899681) U:0.991766 (20.843716) V:0.992386 (21.183725) All:0.990536 (20.239305)
[out#0/null @ 0000020dc25f9980] video:14833KiB audio:269964KiB subtitle:0KiB other streams:0KiB global headers:0KiB muxing overhead: unknown
frame=34520 fps=1081 q=-0.0 Lsize=N/A time=00:23:59.77 bitrate=N/A speed=45.1x    
